<svg xmlns="http://www.w3.org/2000/svg" xmlns:xlink="http://www.w3.org/1999/xlink" width="7039px" height="2256px" viewBox="0 0 7039 2256"><title>BBB-5-Star-Rating</title><g id="BBB-5-Star-Rating" stroke="none" stroke-width="1" fill="none" fill-rule="evenodd"><g id="Better_Business_Bureau" transform="translate(0.100000, 0.000000)" fill="#FFFFFF" fill-rule="nonzero"><g id="Group" transform="translate(167.872445, 0.000000)"><path d="M444.027555,5.5044592 C316.027555,271.504459 -139.972445,529.504459 422.327555,939.504459 C577.327555,1054.50446 837.327555,1124.50446 704.727555,1395.60446 C692.927555,1416.30446 713.527555,1422.00446 731.927555,1406.50446 C921.927555,1186.50446 1230.92756,838.504459 970.727555,555.104459 C822.727555,395.104459 519.727555,290.104459 459.327555,138.104459 C447.627555,108.704459 460.527555,66.2044592 476.727555,32.6044592 C489.727555,1.4044592 451.027555,-6.7955408 444.127555,5.4044592 L444.027555,5.5044592 Z" id="Path"></path><path d="M450.927555,5.5044592 C322.927555,271.504459 -133.072445,529.504459 429.227555,939.504459 C584.227555,1054.50446 844.227555,1124.50446 711.627555,1395.60446 C699.827555,1416.30446 720.427555,1422.00446 738.827555,1406.50446 C928.827555,1186.50446 1237.82756,838.504459 977.627555,555.104459 C829.627555,395.104459 526.627555,290.104459 466.227555,138.104459 C454.527555,108.704459 467.427555,66.2044592 483.627555,32.6044592 C496.627555,1.4044592 457.927555,-6.7955408 451.027555,5.4044592 L450.927555,5.5044592 Z" id="Path"></path><path d="M181.227555,926.204459 C115.527555,1105.20446 -216.772445,1311.20446 226.827555,1548.80446 C329.827555,1610.10446 461.827555,1686.80446 447.627555,1799.00446 C442.127555,1813.30446 455.027555,1815.30446 464.827555,1803.70446 C610.827555,1635.70446 720.827555,1396.70446 541.727555,1235.70446 C448.227555,1145.10446 226.727555,1095.70446 202.927555,941.004459 C208.327555,919.804459 184.327555,917.804459 181.127555,926.304459 L181.227555,926.204459 Z" id="Path"></path></g><polygon id="Path" points="48.2 1869.00446 1169.5 1869.00446 1169.5 2006.70446 48.2 2006.70446"></polygon><path d="M49.5,1865.20446 L0,2004.30446 L84.9,2005.50446 L49.5,1865.20446 Z M1168.5,1865.20446 L1218,2004.30446 L1133.1,2005.50446 L1168.5,1865.20446 Z M284.6,1969.70446 L367.3,2194.60446 L853.4,2192.90446 L929.5,1969.70446 L284.7,1969.70446 L284.6,1969.70446 Z" id="Shape"></path></g><polygon id="Path" fill="#FFFFFF" fill-rule="nonzero" points="2281.02555 197 2143.35041 477.498812 1834 521.698477 2058.36142 739.299916 2005.67527 1047 2281.02555 902.498812 2556.37582 1047 2503.68967 739.299916 2728.05109 521.698477 2418.70069 477.498812"></polygon><polygon id="Path-Copy" fill="#FFFFFF" fill-rule="nonzero" points="3342.02555 197 3204.35041 477.498812 2895 521.698477 3119.36142 739.299916 3066.67527 1047 3342.02555 902.498812 3617.37582 1047 3564.68967 739.299916 3789.05109 521.698477 3479.70069 477.498812"></polygon><polygon id="Path-Copy-2" fill="#FFFFFF" fill-rule="nonzero" points="4403.02555 197 4265.35041 477.498812 3956 521.698477 4180.36142 739.299916 4127.67527 1047 4403.02555 902.498812 4678.37582 1047 4625.68967 739.299916 4850.05109 521.698477 4540.70069 477.498812"></polygon><polygon id="Path-Copy-3" fill="#FFFFFF" fill-rule="nonzero" points="5464.02555 197 5326.35041 477.498812 5017 521.698477 5241.36142 739.299916 5188.67527 1047 5464.02555 902.498812 5739.37582 1047 5686.68967 739.299916 5911.05109 521.698477 5601.70069 477.498812"></polygon><polygon id="Path-Copy-4" fill="#FFFFFF" fill-rule="nonzero" points="6524.02555 197 6386.35041 477.498812 6077 521.698477 6301.36142 739.299916 6248.67527 1047 6524.02555 902.498812 6799.37582 1047 6746.68967 739.299916 6971.05109 521.698477 6661.70069 477.498812"></polygon><path d="M2015.2,1969 L2064.7,1846.6 L2331.1,1846.6 L2380.6,1969 L2566,1969 L2287,1339 L2111.5,1339 L1833.4,1969 L2015.2,1969 Z M2278.9,1715.2 L2116.9,1715.2 L2197.9,1513.6 L2278.9,1715.2 Z M2879.9,1868.2 L2879.9,1719.7 L3032,1719.7 L3032,1588.3 L2879.9,1588.3 L2879.9,1439.8 L2741.3,1439.8 L2741.3,1588.3 L2588.3,1588.3 L2588.3,1719.7 L2741.3,1719.7 L2741.3,1868.2 L2879.9,1868.2 Z M3601.3,1969 L3601.3,1801.6 L3698.5,1801.6 L3812.8,1969 L4003.6,1969 L3867.7,1771 C3907.3,1751.8 3937.75,1725.25 3959.05,1691.35 C3980.35,1657.45 3991,1617.7 3991,1572.1 C3991,1524.7 3979.6,1483.45 3956.8,1448.35 C3934,1413.25 3901.6,1386.25 3859.6,1367.35 C3817.6,1348.45 3768.1,1339 3711.1,1339 L3711.1,1339 L3423.1,1339 L3423.1,1969 L3601.3,1969 Z M3700.3,1663.9 L3601.3,1663.9 L3601.3,1479.4 L3700.3,1479.4 C3736.9,1479.4 3764.5,1487.5 3783.1,1503.7 C3801.7,1519.9 3811,1542.7 3811,1572.1 C3811,1601.5 3801.7,1624.15 3783.1,1640.05 C3764.5,1655.95 3736.9,1663.9 3700.3,1663.9 L3700.3,1663.9 Z M4202.3,1969 L4251.8,1846.6 L4518.2,1846.6 L4567.7,1969 L4753.1,1969 L4474.1,1339 L4298.6,1339 L4020.5,1969 L4202.3,1969 Z M4466,1715.2 L4304,1715.2 L4385,1513.6 L4466,1715.2 Z M5091.3,1969 L5091.3,1480.3 L5283.9,1480.3 L5283.9,1339 L4719.6,1339 L4719.6,1480.3 L4913.1,1480.3 L4913.1,1969 L5091.3,1969 Z M5535.7,1969 L5535.7,1339 L5357.5,1339 L5357.5,1969 L5535.7,1969 Z M5844.2,1969 L5844.2,1633.3 L6122.3,1969 L6269,1969 L6269,1339 L6094.4,1339 L6094.4,1674.7 L5816.3,1339 L5669.6,1339 L5669.6,1969 L5844.2,1969 Z M6717,1981.6 C6763.8,1981.6 6810.6,1974.7 6857.4,1960.9 C6904.2,1947.1 6945.6,1927.3 6981.6,1901.5 L6981.6,1901.5 L6981.6,1640.5 L6824.1,1640.5 L6824.1,1813.3 C6794.1,1827.1 6762,1834 6727.8,1834 C6693,1834 6662.1,1826.35 6635.1,1811.05 C6608.1,1795.75 6587.1,1774.45 6572.1,1747.15 C6557.1,1719.85 6549.6,1688.8 6549.6,1654 C6549.6,1599.4 6566.1,1555.75 6599.1,1523.05 C6632.1,1490.35 6675.6,1474 6729.6,1474 C6789,1474 6840,1497.4 6882.6,1544.2 L6882.6,1544.2 L6996,1441.6 C6964.8,1404.4 6925.8,1375.9 6879,1356.1 C6832.2,1336.3 6779.4,1326.4 6720.6,1326.4 C6653.4,1326.4 6593.1,1340.35 6539.7,1368.25 C6486.3,1396.15 6444.6,1435 6414.6,1484.8 C6384.6,1534.6 6369.6,1591 6369.6,1654 C6369.6,1717 6384.6,1773.4 6414.6,1823.2 C6444.6,1873 6486,1911.85 6538.8,1939.75 C6591.6,1967.65 6651,1981.6 6717,1981.6 Z" id="A+RATING" fill="#FFFFFF" fill-rule="nonzero"></path></g></svg>