<svg xmlns="http://www.w3.org/2000/svg" height="512pt" viewBox="0 -49 512 512" width="512pt"><path d="m0 234h134v39.089844c0 22.332031-18.167969 40.5-40.5 40.5h-51.5v100h51.5c77.472656 0 140.5-63.027344 140.5-140.5v-273.089844h-234zm30-204h174v243.089844c0 60.929687-49.570312 110.5-110.5 110.5h-21.5v-40h21.5c38.875 0 70.5-31.625 70.5-70.5v-69.089844h-134zm0 0"/><path d="m278 0v234h134v39.089844c0 22.332031-18.167969 40.5-40.5 40.5h-51.5v100h51.5c77.472656 0 140.5-63.027344 140.5-140.5v-273.089844zm204 273.089844c0 60.929687-49.570312 110.5-110.5 110.5h-21.5v-40h21.5c38.875 0 70.5-31.625 70.5-70.5v-69.089844h-134v-174h174zm0 0"/></svg>