<svg xmlns="http://www.w3.org/2000/svg" xmlns:xlink="http://www.w3.org/1999/xlink" width="7039px" height="2256px" viewBox="0 0 7039 2256"><title>Facebook-5-Star-Rating Copy 2</title><g id="Facebook-5-Star-Rating-Copy-2" stroke="none" stroke-width="1" fill="none" fill-rule="evenodd"><polygon id="Path" fill="#FFFFFF" fill-rule="nonzero" points="2281.02555 197 2143.35041 477.498812 1834 521.698477 2058.36142 739.299916 2005.67527 1047 2281.02555 902.498812 2556.37582 1047 2503.68967 739.299916 2728.05109 521.698477 2418.70069 477.498812"></polygon><polygon id="Path-Copy" fill="#FFFFFF" fill-rule="nonzero" points="3342.02555 197 3204.35041 477.498812 2895 521.698477 3119.36142 739.299916 3066.67527 1047 3342.02555 902.498812 3617.37582 1047 3564.68967 739.299916 3789.05109 521.698477 3479.70069 477.498812"></polygon><polygon id="Path-Copy-2" fill="#FFFFFF" fill-rule="nonzero" points="4403.02555 197 4265.35041 477.498812 3956 521.698477 4180.36142 739.299916 4127.67527 1047 4403.02555 902.498812 4678.37582 1047 4625.68967 739.299916 4850.05109 521.698477 4540.70069 477.498812"></polygon><polygon id="Path-Copy-3" fill="#FFFFFF" fill-rule="nonzero" points="5464.02555 197 5326.35041 477.498812 5017 521.698477 5241.36142 739.299916 5188.67527 1047 5464.02555 902.498812 5739.37582 1047 5686.68967 739.299916 5911.05109 521.698477 5601.70069 477.498812"></polygon><polygon id="Path-Copy-4" fill="#FFFFFF" fill-rule="nonzero" points="6524.02555 197 6386.35041 477.498812 6077 521.698477 6301.36142 739.299916 6248.67527 1047 6524.02555 902.498812 6799.37582 1047 6746.68967 739.299916 6971.05109 521.698477 6661.70069 477.498812"></polygon><path d="M3601.3,1969 L3601.3,1801.6 L3698.5,1801.6 L3812.8,1969 L4003.6,1969 L3867.7,1771 C3907.3,1751.8 3937.75,1725.25 3959.05,1691.35 C3980.35,1657.45 3991,1617.7 3991,1572.1 C3991,1524.7 3979.6,1483.45 3956.8,1448.35 C3934,1413.25 3901.6,1386.25 3859.6,1367.35 C3817.6,1348.45 3768.1,1339 3711.1,1339 L3711.1,1339 L3423.1,1339 L3423.1,1969 L3601.3,1969 Z M3700.3,1663.9 L3601.3,1663.9 L3601.3,1479.4 L3700.3,1479.4 C3736.9,1479.4 3764.5,1487.5 3783.1,1503.7 C3801.7,1519.9 3811,1542.7 3811,1572.1 C3811,1601.5 3801.7,1624.15 3783.1,1640.05 C3764.5,1655.95 3736.9,1663.9 3700.3,1663.9 L3700.3,1663.9 Z M4202.3,1969 L4251.8,1846.6 L4518.2,1846.6 L4567.7,1969 L4753.1,1969 L4474.1,1339 L4298.6,1339 L4020.5,1969 L4202.3,1969 Z M4466,1715.2 L4304,1715.2 L4385,1513.6 L4466,1715.2 Z M5091.3,1969 L5091.3,1480.3 L5283.9,1480.3 L5283.9,1339 L4719.6,1339 L4719.6,1480.3 L4913.1,1480.3 L4913.1,1969 L5091.3,1969 Z M5535.7,1969 L5535.7,1339 L5357.5,1339 L5357.5,1969 L5535.7,1969 Z M5844.2,1969 L5844.2,1633.3 L6122.3,1969 L6269,1969 L6269,1339 L6094.4,1339 L6094.4,1674.7 L5816.3,1339 L5669.6,1339 L5669.6,1969 L5844.2,1969 Z M6717,1981.6 C6763.8,1981.6 6810.6,1974.7 6857.4,1960.9 C6904.2,1947.1 6945.6,1927.3 6981.6,1901.5 L6981.6,1901.5 L6981.6,1640.5 L6824.1,1640.5 L6824.1,1813.3 C6794.1,1827.1 6762,1834 6727.8,1834 C6693,1834 6662.1,1826.35 6635.1,1811.05 C6608.1,1795.75 6587.1,1774.45 6572.1,1747.15 C6557.1,1719.85 6549.6,1688.8 6549.6,1654 C6549.6,1599.4 6566.1,1555.75 6599.1,1523.05 C6632.1,1490.35 6675.6,1474 6729.6,1474 C6789,1474 6840,1497.4 6882.6,1544.2 L6882.6,1544.2 L6996,1441.6 C6964.8,1404.4 6925.8,1375.9 6879,1356.1 C6832.2,1336.3 6779.4,1326.4 6720.6,1326.4 C6653.4,1326.4 6593.1,1340.35 6539.7,1368.25 C6486.3,1396.15 6444.6,1435 6414.6,1484.8 C6384.6,1534.6 6369.6,1591 6369.6,1654 C6369.6,1717 6384.6,1773.4 6414.6,1823.2 C6444.6,1873 6486,1911.85 6538.8,1939.75 C6591.6,1967.65 6651,1981.6 6717,1981.6 Z" id="A+RATING" fill="#FFFFFF" fill-rule="nonzero"></path><path d="M1349.25,346 C1455.55163,346 1542,432.448375 1542,538.75 L1542,538.75 L1542,1695.25 C1542,1801.55163 1455.55163,1888 1349.25,1888 L1349.25,1888 L1060,1888 L1060,1357.88462 L1204.6,1357.88462 L1301,1116.92308 L1060,1116.92308 L1060,924.153846 C1060,870.949538 1103.1872,875.961538 1156.4,875.961538 L1252.8,875.961538 L1252.8,635 L1060,635 C900.2652,635 770.8,764.444538 770.8,924.153846 L770.8,1116.92308 L578,1116.92308 L578,1357.88462 L770.8,1357.88462 L770.8,1888 L192.75,1888 C86.448375,1888 0,1801.55163 0,1695.25 L0,1695.25 L0,538.75 C0,432.448375 86.448375,346 192.75,346 L192.75,346 Z" id="Combined-Shape" fill="#FFFFFF" fill-rule="nonzero"></path><path d="M2085.1,1988.6 C2145.7,1988.6 2196.55,1978.85 2237.65,1959.35 C2278.75,1939.85 2309.35,1913.75 2329.45,1881.05 C2349.55,1848.35 2359.6,1812.5 2359.6,1773.5 C2359.6,1713.5 2338.45,1665.5 2296.15,1629.5 C2253.85,1593.5 2188.6,1575.5 2100.4,1575.5 L2100.4,1575.5 L2058.1,1575.5 L2066.2,1483.7 L2320,1483.7 L2320,1346 L1918.6,1346 L1887.1,1714.1 L2058.1,1714.1 C2103.7,1714.1 2135.5,1719.5 2153.5,1730.3 C2171.5,1741.1 2180.5,1757 2180.5,1778 C2180.5,1799 2171.35,1815.35 2153.05,1827.05 C2134.75,1838.75 2110.3,1844.6 2079.7,1844.6 C2049.1,1844.6 2018.65,1840.1 1988.35,1831.1 C1958.05,1822.1 1930.3,1809.2 1905.1,1792.4 L1905.1,1792.4 L1841.2,1926.5 C1872.4,1946.3 1909.75,1961.6 1953.25,1972.4 C1996.75,1983.2 2040.7,1988.6 2085.1,1988.6 Z M2514.2,1984.1 C2543.6,1984.1 2568.05,1974.5 2587.55,1955.3 C2607.05,1936.1 2616.8,1911.8 2616.8,1882.4 C2616.8,1852.4 2607.2,1828.1 2588,1809.5 C2568.8,1790.9 2544.2,1781.6 2514.2,1781.6 C2484.8,1781.6 2460.35,1790.9 2440.85,1809.5 C2421.35,1828.1 2411.6,1852.4 2411.6,1882.4 C2411.6,1911.8 2421.5,1936.1 2441.3,1955.3 C2461.1,1974.5 2485.4,1984.1 2514.2,1984.1 Z M2945.1,1988.6 C2998.5,1988.6 3046.2,1975.7 3088.2,1949.9 C3130.2,1924.1 3163.05,1886.45 3186.75,1836.95 C3210.45,1787.45 3222.3,1728.8 3222.3,1661 C3222.3,1593.2 3210.45,1534.55 3186.75,1485.05 C3163.05,1435.55 3130.2,1397.9 3088.2,1372.1 C3046.2,1346.3 2998.5,1333.4 2945.1,1333.4 C2891.1,1333.4 2843.1,1346.3 2801.1,1372.1 C2759.1,1397.9 2726.25,1435.55 2702.55,1485.05 C2678.85,1534.55 2667,1593.2 2667,1661 C2667,1728.8 2678.85,1787.45 2702.55,1836.95 C2726.25,1886.45 2759.1,1924.1 2801.1,1949.9 C2843.1,1975.7 2891.1,1988.6 2945.1,1988.6 Z M2945.1,1842.8 C2914.5,1842.8 2890.35,1828.25 2872.65,1799.15 C2854.95,1770.05 2846.1,1724 2846.1,1661 C2846.1,1598 2854.95,1551.95 2872.65,1522.85 C2890.35,1493.75 2914.5,1479.2 2945.1,1479.2 C2975.1,1479.2 2998.95,1493.75 3016.65,1522.85 C3034.35,1551.95 3043.2,1598 3043.2,1661 C3043.2,1724 3034.35,1770.05 3016.65,1799.15 C2998.95,1828.25 2975.1,1842.8 2945.1,1842.8 Z" id="5.0" fill="#FFFFFF" fill-rule="nonzero"></path></g></svg>