<svg xmlns="http://www.w3.org/2000/svg" xmlns:xlink="http://www.w3.org/1999/xlink" width="7039px" height="2256px" viewBox="0 0 7039 2256"><title>Google-5-Star-Rating Copy</title><g id="Google-5-Star-Rating-Copy" stroke="none" stroke-width="1" fill="none" fill-rule="evenodd"><polygon id="Path" fill="#FFFFFF" fill-rule="nonzero" points="2281.02555 197 2143.35041 477.498812 1834 521.698477 2058.36142 739.299916 2005.67527 1047 2281.02555 902.498812 2556.37582 1047 2503.68967 739.299916 2728.05109 521.698477 2418.70069 477.498812"></polygon><polygon id="Path-Copy" fill="#FFFFFF" fill-rule="nonzero" points="3342.02555 197 3204.35041 477.498812 2895 521.698477 3119.36142 739.299916 3066.67527 1047 3342.02555 902.498812 3617.37582 1047 3564.68967 739.299916 3789.05109 521.698477 3479.70069 477.498812"></polygon><polygon id="Path-Copy-2" fill="#FFFFFF" fill-rule="nonzero" points="4403.02555 197 4265.35041 477.498812 3956 521.698477 4180.36142 739.299916 4127.67527 1047 4403.02555 902.498812 4678.37582 1047 4625.68967 739.299916 4850.05109 521.698477 4540.70069 477.498812"></polygon><polygon id="Path-Copy-3" fill="#FFFFFF" fill-rule="nonzero" points="5464.02555 197 5326.35041 477.498812 5017 521.698477 5241.36142 739.299916 5188.67527 1047 5464.02555 902.498812 5739.37582 1047 5686.68967 739.299916 5911.05109 521.698477 5601.70069 477.498812"></polygon><polygon id="Path-Copy-4" fill="#FFFFFF" fill-rule="nonzero" points="6524.02555 197 6386.35041 477.498812 6077 521.698477 6301.36142 739.299916 6248.67527 1047 6524.02555 902.498812 6799.37582 1047 6746.68967 739.299916 6971.05109 521.698477 6661.70069 477.498812"></polygon><path d="M3601.3,1969 L3601.3,1801.6 L3698.5,1801.6 L3812.8,1969 L4003.6,1969 L3867.7,1771 C3907.3,1751.8 3937.75,1725.25 3959.05,1691.35 C3980.35,1657.45 3991,1617.7 3991,1572.1 C3991,1524.7 3979.6,1483.45 3956.8,1448.35 C3934,1413.25 3901.6,1386.25 3859.6,1367.35 C3817.6,1348.45 3768.1,1339 3711.1,1339 L3711.1,1339 L3423.1,1339 L3423.1,1969 L3601.3,1969 Z M3700.3,1663.9 L3601.3,1663.9 L3601.3,1479.4 L3700.3,1479.4 C3736.9,1479.4 3764.5,1487.5 3783.1,1503.7 C3801.7,1519.9 3811,1542.7 3811,1572.1 C3811,1601.5 3801.7,1624.15 3783.1,1640.05 C3764.5,1655.95 3736.9,1663.9 3700.3,1663.9 L3700.3,1663.9 Z M4202.3,1969 L4251.8,1846.6 L4518.2,1846.6 L4567.7,1969 L4753.1,1969 L4474.1,1339 L4298.6,1339 L4020.5,1969 L4202.3,1969 Z M4466,1715.2 L4304,1715.2 L4385,1513.6 L4466,1715.2 Z M5091.3,1969 L5091.3,1480.3 L5283.9,1480.3 L5283.9,1339 L4719.6,1339 L4719.6,1480.3 L4913.1,1480.3 L4913.1,1969 L5091.3,1969 Z M5535.7,1969 L5535.7,1339 L5357.5,1339 L5357.5,1969 L5535.7,1969 Z M5844.2,1969 L5844.2,1633.3 L6122.3,1969 L6269,1969 L6269,1339 L6094.4,1339 L6094.4,1674.7 L5816.3,1339 L5669.6,1339 L5669.6,1969 L5844.2,1969 Z M6717,1981.6 C6763.8,1981.6 6810.6,1974.7 6857.4,1960.9 C6904.2,1947.1 6945.6,1927.3 6981.6,1901.5 L6981.6,1901.5 L6981.6,1640.5 L6824.1,1640.5 L6824.1,1813.3 C6794.1,1827.1 6762,1834 6727.8,1834 C6693,1834 6662.1,1826.35 6635.1,1811.05 C6608.1,1795.75 6587.1,1774.45 6572.1,1747.15 C6557.1,1719.85 6549.6,1688.8 6549.6,1654 C6549.6,1599.4 6566.1,1555.75 6599.1,1523.05 C6632.1,1490.35 6675.6,1474 6729.6,1474 C6789,1474 6840,1497.4 6882.6,1544.2 L6882.6,1544.2 L6996,1441.6 C6964.8,1404.4 6925.8,1375.9 6879,1356.1 C6832.2,1336.3 6779.4,1326.4 6720.6,1326.4 C6653.4,1326.4 6593.1,1340.35 6539.7,1368.25 C6486.3,1396.15 6444.6,1435 6414.6,1484.8 C6384.6,1534.6 6369.6,1591 6369.6,1654 C6369.6,1717 6384.6,1773.4 6414.6,1823.2 C6444.6,1873 6486,1911.85 6538.8,1939.75 C6591.6,1967.65 6651,1981.6 6717,1981.6 Z" id="A+RATING" fill="#FFFFFF" fill-rule="nonzero"></path><g id="google" transform="translate(0.000000, 370.000000)" fill="#FFFFFF" fill-rule="nonzero"><path d="M356.211053,758.5 C356.211053,683.35239 376.957378,612.956495 413,552.680213 L413,297 L156.801137,297 C55.1177236,428.79197 0,589.411211 0,758.5 C0,927.588789 55.1177236,1088.20803 156.801137,1220 L413,1220 L413,964.319787 C376.957378,904.043505 356.211053,833.64761 356.211053,758.5 L356.211053,758.5 Z" id="Path"></path><path d="M758.676854,1161.41631 L581,1339.20816 L758.676854,1517 C927.703807,1517 1088.25854,1461.97935 1220,1360.47502 L1220,1105 L964.690206,1105 C903.909915,1141.10952 833.244869,1161.41631 758.676854,1161.41631 L758.676854,1161.41631 Z" id="Path"></path><path d="M411.72489,964 L156,1219.88439 C176.094617,1245.99819 197.975883,1271.00612 221.652687,1294.70066 C364.916462,1438.05082 555.394587,1517 758,1517 L758,1161.22618 C610.967373,1161.22618 482.100494,1082.00721 411.72489,964 Z" id="Path"></path><path d="M1517,758.885356 C1517,712.729101 1512.81957,666.486905 1504.57137,621.447883 L1497.89751,585 L758,585 L758,940.618016 L1118.0862,940.618016 C1083.11884,1010.1443 1029.35436,1066.86834 964.25825,1105.50031 L1219.87522,1361 C1245.98956,1340.90166 1270.99802,1319.01633 1294.69305,1295.33513 C1438.04918,1152.04182 1517,961.528355 1517,758.885356 L1517,758.885356 Z" id="Path"></path><path d="M1043.3704,473.575091 L1074.77205,505 L1326,253.588879 L1294.59836,222.163971 C1151.4405,78.9000464 961.103189,0 758.6446,0 L581,177.776213 L758.6446,355.552426 C866.196562,355.552426 967.314828,397.466132 1043.3704,473.575091 Z" id="Path"></path><path d="M758,355.773819 L758,0 C555.395584,0 364.918397,78.9491752 221.652364,222.299341 C197.975677,245.990913 176.094518,270.998847 156,297.11561 L411.723631,553 C482.101852,434.992789 610.968097,355.773819 758,355.773819 Z" id="Path"></path></g><path d="M2085.1,1994.6 C2145.7,1994.6 2196.55,1984.85 2237.65,1965.35 C2278.75,1945.85 2309.35,1919.75 2329.45,1887.05 C2349.55,1854.35 2359.6,1818.5 2359.6,1779.5 C2359.6,1719.5 2338.45,1671.5 2296.15,1635.5 C2253.85,1599.5 2188.6,1581.5 2100.4,1581.5 L2100.4,1581.5 L2058.1,1581.5 L2066.2,1489.7 L2320,1489.7 L2320,1352 L1918.6,1352 L1887.1,1720.1 L2058.1,1720.1 C2103.7,1720.1 2135.5,1725.5 2153.5,1736.3 C2171.5,1747.1 2180.5,1763 2180.5,1784 C2180.5,1805 2171.35,1821.35 2153.05,1833.05 C2134.75,1844.75 2110.3,1850.6 2079.7,1850.6 C2049.1,1850.6 2018.65,1846.1 1988.35,1837.1 C1958.05,1828.1 1930.3,1815.2 1905.1,1798.4 L1905.1,1798.4 L1841.2,1932.5 C1872.4,1952.3 1909.75,1967.6 1953.25,1978.4 C1996.75,1989.2 2040.7,1994.6 2085.1,1994.6 Z M2514.2,1990.1 C2543.6,1990.1 2568.05,1980.5 2587.55,1961.3 C2607.05,1942.1 2616.8,1917.8 2616.8,1888.4 C2616.8,1858.4 2607.2,1834.1 2588,1815.5 C2568.8,1796.9 2544.2,1787.6 2514.2,1787.6 C2484.8,1787.6 2460.35,1796.9 2440.85,1815.5 C2421.35,1834.1 2411.6,1858.4 2411.6,1888.4 C2411.6,1917.8 2421.5,1942.1 2441.3,1961.3 C2461.1,1980.5 2485.4,1990.1 2514.2,1990.1 Z M2945.1,1994.6 C2998.5,1994.6 3046.2,1981.7 3088.2,1955.9 C3130.2,1930.1 3163.05,1892.45 3186.75,1842.95 C3210.45,1793.45 3222.3,1734.8 3222.3,1667 C3222.3,1599.2 3210.45,1540.55 3186.75,1491.05 C3163.05,1441.55 3130.2,1403.9 3088.2,1378.1 C3046.2,1352.3 2998.5,1339.4 2945.1,1339.4 C2891.1,1339.4 2843.1,1352.3 2801.1,1378.1 C2759.1,1403.9 2726.25,1441.55 2702.55,1491.05 C2678.85,1540.55 2667,1599.2 2667,1667 C2667,1734.8 2678.85,1793.45 2702.55,1842.95 C2726.25,1892.45 2759.1,1930.1 2801.1,1955.9 C2843.1,1981.7 2891.1,1994.6 2945.1,1994.6 Z M2945.1,1848.8 C2914.5,1848.8 2890.35,1834.25 2872.65,1805.15 C2854.95,1776.05 2846.1,1730 2846.1,1667 C2846.1,1604 2854.95,1557.95 2872.65,1528.85 C2890.35,1499.75 2914.5,1485.2 2945.1,1485.2 C2975.1,1485.2 2998.95,1499.75 3016.65,1528.85 C3034.35,1557.95 3043.2,1604 3043.2,1667 C3043.2,1730 3034.35,1776.05 3016.65,1805.15 C2998.95,1834.25 2975.1,1848.8 2945.1,1848.8 Z" id="5.0" fill="#FFFFFF" fill-rule="nonzero"></path></g></svg>