<svg xmlns="http://www.w3.org/2000/svg" xmlns:xlink="http://www.w3.org/1999/xlink" width="1481px" height="442px" viewBox="0 0 1481 442"><title>Ameritrust-Construction-Color-Logo</title><g id="Page-1" stroke="none" stroke-width="1" fill="none" fill-rule="evenodd"><g id="Ameritrust-Construction-Color-Logo" fill-rule="nonzero"><g id="Group" transform="translate(349.900000, 374.200000)" fill="#990D0D"><path d="M51.4,10.1 C46.6,10.1 42.1,10.6 38.1,11.7 C34,12.8 30.5,14.3 27.6,16.4 C24.7,18.4 22.4,21 20.8,24 C19.2,27 18.3,30.4 18.3,34.3 C18.3,38.1 19,41.5 20.5,44.4 C22,47.3 24.1,49.7 26.9,51.7 C29.7,53.6 33.1,55.1 37.1,56.1 C41.1,57.1 45.7,57.6 50.8,57.6 C54.5,57.6 58.2,57.4 62,57 C65.8,56.6 69.4,56 72.7,55.3 L72.7,65.6 C69.3,66.2 65.7,66.8 61.8,67.1 C57.9,67.5 53.9,67.7 49.7,67.7 C41.5,67.7 34.3,66.9 28.1,65.3 C21.9,63.7 16.7,61.5 12.5,58.6 C8.3,55.7 5.2,52.3 3.1,48.3 C1,44.3 0,39.9 0,35.1 C0,30.1 1.1,25.5 3.4,21.3 C5.6,17.1 8.9,13.4 13.1,10.3 C17.3,7.2 22.6,4.7 28.9,3 C35.2,1.2 42.4,0.3 50.4,0.3 C54.5,0.3 58.4,0.5 62,0.9 C65.7,1.3 69,1.8 71.9,2.5 L71.9,12.6 C68,11.8 64.5,11.2 61.1,10.9 C57.9,10.2 54.6,10.1 51.4,10.1 Z" id="Path"></path><path d="M180,33.7 C180,38.7 179,43.2 176.9,47.3 C174.8,51.4 171.7,55 167.7,58 C163.7,61 158.7,63.3 152.9,64.9 C147,66.6 140.4,67.4 132.9,67.4 C125.4,67.4 118.8,66.6 112.9,64.9 C107,63.2 102.1,60.9 98.1,58 C94.1,55 91,51.5 88.9,47.3 C86.8,43.2 85.8,38.6 85.8,33.7 C85.8,28.8 86.8,24.2 88.9,20.1 C91,16 94.1,12.4 98.1,9.4 C102.1,6.4 107.1,4.1 112.9,2.5 C118.8,0.8 125.4,-5.68434189e-14 132.9,-5.68434189e-14 C140.4,-5.68434189e-14 147,0.8 152.9,2.5 C158.8,4.2 163.7,6.5 167.7,9.4 C171.7,12.4 174.8,15.9 176.9,20.1 C179,24.2 180,28.8 180,33.7 Z M161.8,33.7 C161.8,29.7 161.1,26.3 159.6,23.3 C158.2,20.3 156.2,17.9 153.6,15.9 C151,13.9 148,12.5 144.5,11.5 C141,10.5 137.1,10 132.9,10 C128.7,10 124.9,10.5 121.3,11.5 C117.8,12.5 114.7,13.9 112.2,15.9 C109.6,17.9 107.6,20.3 106.2,23.3 C104.8,26.3 104,29.7 104,33.7 C104,37.7 104.7,41.1 106.2,44.1 C107.6,47.1 109.6,49.5 112.2,51.5 C114.8,53.5 117.8,54.9 121.3,55.9 C124.8,56.9 128.7,57.4 132.9,57.4 C137.1,57.4 140.9,56.9 144.5,55.9 C148,54.9 151,53.4 153.6,51.5 C156.2,49.5 158.2,47.1 159.6,44.1 C161,41.1 161.8,37.7 161.8,33.7 Z" id="Shape"></path><path d="M248.4,31.5 C255.3,38.1 261,44 265.3,49.2 L265.7,49.2 C265.1,40.7 264.8,34.6 264.8,30.7 L264.8,1.3 L282.5,1.3 L282.5,66.3 L263.9,66.3 L232.4,36.4 C226.9,31.2 221.1,25.2 215.2,18.4 L214.8,18.4 C215.4,26.4 215.7,32.5 215.7,36.9 L215.7,66.3 L198.1,66.3 L198.1,1.3 L216.7,1.3 L248.4,31.5 Z" id="Path"></path><path d="M352.5,47.6 C352.5,45.9 351.9,44.6 350.7,43.6 C349.5,42.6 347.9,41.7 345.8,41.1 C343.7,40.5 341.4,39.9 338.8,39.5 C336.2,39.1 333.5,38.7 330.7,38.3 C326.9,37.8 323.4,37.1 319.9,36.3 C316.5,35.5 313.5,34.5 310.9,33.1 C308.3,31.7 306.2,30 304.7,28 C303.2,25.9 302.4,23.3 302.4,20.2 C302.4,16.8 303.3,13.8 305.1,11.2 C306.9,8.7 309.3,6.6 312.4,4.9 C315.5,3.2 319,2 323.2,1.2 C327.3,0.4 332,-5.68434189e-14 337.1,-5.68434189e-14 C342.3,-5.68434189e-14 347.4,0.3 352.6,1 C357.8,1.7 362.3,2.6 366,3.6 L366,13.8 C361,12.5 356.2,11.5 351.6,10.9 C347,10.3 342.7,10 338.6,10 C332.8,10 328.3,10.7 325.1,12.1 C321.9,13.5 320.4,15.7 320.4,18.5 C320.4,20.2 320.9,21.5 322,22.6 C323,23.7 324.4,24.6 326.2,25.2 C328,25.9 330,26.5 332.3,26.9 C334.6,27.3 337.1,27.7 339.7,28.1 C343.8,28.7 347.7,29.4 351.4,30.1 C355.1,30.9 358.4,31.9 361.3,33.3 C364.2,34.7 366.5,36.4 368.2,38.6 C369.9,40.8 370.7,43.6 370.7,47 C370.7,50.5 369.7,53.5 367.8,56.1 C365.9,58.7 363.1,60.8 359.6,62.4 C356.1,64.1 351.8,65.3 346.7,66.1 C341.6,66.9 336.1,67.3 330.1,67.3 C324.8,67.3 319.7,67 314.6,66.3 C309.5,65.6 305.3,64.6 301.9,63.4 L301.9,53.3 C306.7,54.7 311.3,55.7 315.8,56.3 C320.3,56.9 325,57.2 329.8,57.2 C332.6,57.2 335.3,57 338,56.7 C340.7,56.4 343.1,55.9 345.3,55.1 C347.4,54.4 349.2,53.3 350.5,52.1 C351.9,51 352.5,49.5 352.5,47.6 Z" id="Path"></path><polygon id="Path" points="429.2 66.2 411.5 66.2 411.5 11.2 380.3 11.2 380.3 1.2 460.4 1.2 460.4 11.2 429.3 11.2 429.3 66.2"></polygon><path d="M544.8,20.8 C544.8,25.3 542.9,29.2 539.2,32.3 C535.5,35.5 529.7,37.8 521.9,39.3 L521.9,39.5 L550.7,66.2 L529.5,66.2 L503.1,41.1 L491,41.1 L491,66.3 L473.3,66.3 L473.3,1.3 L502.7,1.3 C507.6,1.3 512.1,1.5 516.3,1.9 C520.5,2.3 524.1,2.8 527.1,3.6 C532.8,5.1 537.2,7.2 540.2,10.1 C543.3,12.8 544.8,16.4 544.8,20.8 Z M499.7,31.1 C503.7,31.1 507.2,31 510,30.7 C512.8,30.5 515.2,30.1 517.1,29.6 C520.7,28.7 523.1,27.5 524.5,25.9 C525.9,24.3 526.6,22.5 526.6,20.5 C526.6,18.8 526.1,17.2 525,15.9 C523.9,14.6 522.1,13.5 519.5,12.7 C517.8,12.2 515.7,11.8 513.1,11.6 C510.5,11.4 507.4,11.2 503.6,11.2 L491,11.2 L491,31.1 L499.7,31.1 Z" id="Shape"></path><path d="M605.5,67.5 C600.4,67.5 595.9,67.2 591.8,66.5 C587.8,65.8 584.2,64.9 581.1,63.6 C578,62.4 575.4,60.8 573.2,59 C571,57.2 569.3,55.2 568,52.9 C566.9,51.1 566.2,49.1 565.7,46.9 C565.2,44.7 565,42.2 565,39.5 L565,1.2 L582.7,1.2 L582.7,38.4 C582.7,43 583.5,46.6 585.2,49.2 C587,52.1 589.7,54.2 593.2,55.4 C596.7,56.7 600.9,57.3 605.6,57.3 C610.3,57.3 614.5,56.7 618,55.4 C621.5,54.1 624.2,52 626,49.2 C627.6,46.6 628.5,43 628.5,38.4 L628.5,1.2 L646.2,1.2 L646.2,39.5 C646.2,42.2 646,44.7 645.5,46.9 C645,49.1 644.3,51.1 643.2,52.9 C641.9,55.2 640.2,57.2 638,59 C635.8,60.8 633.1,62.3 630,63.6 C626.8,64.8 623.2,65.8 619.1,66.5 C615.1,67.1 610.5,67.5 605.5,67.5 Z" id="Path"></path><path d="M715.4,10.1 C710.6,10.1 706.1,10.6 702.1,11.7 C698,12.8 694.5,14.3 691.6,16.4 C688.7,18.4 686.4,21 684.8,24 C683.2,27 682.3,30.4 682.3,34.3 C682.3,38.1 683,41.5 684.5,44.4 C686,47.3 688.1,49.7 690.9,51.7 C693.7,53.6 697.1,55.1 701.1,56.1 C705.1,57.1 709.7,57.6 714.8,57.6 C718.5,57.6 722.2,57.4 726,57 C729.8,56.6 733.4,56 736.7,55.3 L736.7,65.6 C733.3,66.2 729.7,66.8 725.8,67.1 C721.9,67.5 717.9,67.7 713.7,67.7 C705.5,67.7 698.3,66.9 692.1,65.3 C685.9,63.7 680.7,61.5 676.5,58.6 C672.3,55.7 669.2,52.3 667.1,48.3 C665,44.3 664,39.9 664,35.1 C664,30.1 665.1,25.5 667.4,21.3 C669.6,17.1 672.9,13.4 677.1,10.3 C681.3,7.2 686.6,4.7 692.9,3 C699.2,1.2 706.4,0.3 714.4,0.3 C718.5,0.3 722.4,0.5 726,0.9 C729.7,1.3 733,1.8 735.9,2.5 L735.9,12.6 C732,11.8 728.5,11.2 725.1,10.9 C721.8,10.2 718.5,10.1 715.4,10.1 Z" id="Path"></path><polygon id="Path" points="793.6 66.2 775.9 66.2 775.9 11.2 744.7 11.2 744.7 1.2 824.8 1.2 824.8 11.2 793.7 11.2 793.7 66.2"></polygon><polygon id="Path" points="837.7 66.2 837.7 1.2 855.4 1.2 855.4 66.2"></polygon><path d="M967.7,33.7 C967.7,38.7 966.7,43.2 964.6,47.3 C962.5,51.4 959.4,55 955.4,58 C951.4,61 946.4,63.3 940.6,64.9 C934.7,66.6 928.1,67.4 920.6,67.4 C913.1,67.4 906.5,66.6 900.6,64.9 C894.7,63.2 889.8,60.9 885.8,58 C881.8,55 878.7,51.5 876.6,47.3 C874.5,43.2 873.5,38.6 873.5,33.7 C873.5,28.8 874.5,24.2 876.6,20.1 C878.7,16 881.8,12.4 885.8,9.4 C889.8,6.4 894.8,4.1 900.6,2.5 C906.5,0.8 913.1,-5.68434189e-14 920.6,-5.68434189e-14 C928.1,-5.68434189e-14 934.7,0.8 940.6,2.5 C946.5,4.2 951.4,6.5 955.4,9.4 C959.4,12.4 962.5,15.9 964.6,20.1 C966.6,24.2 967.7,28.8 967.7,33.7 Z M949.4,33.7 C949.4,29.7 948.7,26.3 947.2,23.3 C945.8,20.3 943.8,17.9 941.2,15.9 C938.6,13.9 935.6,12.5 932.1,11.5 C928.6,10.5 924.7,10 920.5,10 C916.3,10 912.5,10.5 908.9,11.5 C905.4,12.5 902.3,13.9 899.8,15.9 C897.2,17.9 895.2,20.3 893.8,23.3 C892.4,26.3 891.6,29.7 891.6,33.7 C891.6,37.7 892.3,41.1 893.8,44.1 C895.2,47.1 897.2,49.5 899.8,51.5 C902.4,53.5 905.4,54.9 908.9,55.9 C912.4,56.9 916.3,57.4 920.5,57.4 C924.7,57.4 928.5,56.9 932.1,55.9 C935.6,54.9 938.6,53.4 941.2,51.5 C943.8,49.5 945.8,47.1 947.2,44.1 C948.7,41.1 949.4,37.7 949.4,33.7 Z" id="Shape"></path><path d="M1036.1,31.5 C1043,38.1 1048.7,44 1053,49.2 L1053.4,49.2 C1052.8,40.7 1052.5,34.6 1052.5,30.7 L1052.5,1.3 L1070.2,1.3 L1070.2,66.3 L1051.6,66.3 L1020.1,36.4 C1014.6,31.2 1008.8,25.2 1002.9,18.4 L1002.5,18.4 C1003.1,26.4 1003.4,32.5 1003.4,36.9 L1003.4,66.3 L985.7,66.3 L985.7,1.3 L1004.3,1.3 L1036.1,31.5 Z" id="Path"></path></g><path d="M214.6,0 L102.3,0 L0,436.7 L82.2,436.7 L103.7,353.2 L197.4,353.2 L209.1,436.7 L316.7,436.7 L214.6,0 Z M158.4,253.3 L100.6,301.5 L122.7,223.2 L64.6,172.5 L137.9,172.5 L159.4,95.1 L181.1,173.1 L253,173.1 L194.9,222 L216.6,301.6 L158.4,253.3 Z" id="Shape" fill="#063B62"></path><g id="Group" transform="translate(314.700000, 113.000000)" fill="#063B62"><polygon id="Path" points="57.1 1.9 5.68434189e-14 1.9 5.68434189e-14 206.7 36.1 206.7 36.1 119 61.5 206.7 100.3 206.7 125.3 117.2 125.3 206.7 166.1 206.7 166.1 1.9 108.1 1.9 83.8 98"></polygon><polygon id="Path" points="279.3 1.9 185.3 1.9 185.3 206.7 279.3 206.7 279.3 175.3 235.9 175.3 235.9 118 271.1 118 271.1 83.8 235.7 83.8 235.7 32 279.3 32"></polygon><path d="M411.9,182.8 L411.9,130.5 C411.9,106.7 399.4,96 373,96 L373,94.9 C402.3,94.9 412.1,75.3 412.1,63.5 C412.1,51.7 412.1,58.5 412.1,37.5 C412.1,16.5 396,1.9 358.2,1.9 C320.5,1.9 295.4,1.9 295.4,1.9 L295.4,206.7 L346.2,206.7 L346.2,112 C346.2,112 361.3,112.2 361.3,126.5 L361.3,180.5 C361.3,194.8 366.4,206.7 366.4,206.7 L416.3,206.7 C416.3,206.7 411.9,197.1 411.9,182.8 Z M361.5,41.9 L361.5,74.2 C361.5,82.5 355.8,84.2 346.1,84.2 L346.1,29.3 C346.1,29.3 350.2,29.3 350.6,29.3 C361.8,29.2 361.5,36.6 361.5,41.9 Z" id="Shape"></path><rect id="Rectangle" x="437.4" y="0" width="51.7" height="206.7"></rect></g><g id="Group" transform="translate(812.300000, 114.900000)" fill="#990D0D"><path d="M150,2.84217094e-14 C150,2.84217094e-14 140.9,29.4 140.3,30 C140.1,30.2 125.8,30.3 107.4,30.3 L50.5,204.9 L0,204.9 L57.1,30.1 C38.4,30 24,30 24,30 L33.2,2.84217094e-14 L150,2.84217094e-14 Z" id="Path"></path><path d="M667.9,2.84217094e-14 C667.9,2.84217094e-14 658.8,29.4 658.2,30 C658,30.2 643.8,30.3 625.3,30.3 L568.4,204.9 L517.9,204.9 L575,30.2 C556.3,30.1 541.9,30.1 541.9,30.1 L551.1,0.1 L667.9,0.1 L667.9,2.84217094e-14 Z" id="Path"></path><path d="M266.4,15.1 C260.7,4.1 239.4,0 222.7,0 C206,0 160,0 160,0 L93,204.8 L145.8,204.8 L176,109.8 L176.1,109.4 C178.8,109.9 183.6,111.2 185.8,113.4 C189,116.6 188.3,123.7 184.6,134 C180.9,144.3 171.3,171.3 168.1,182.9 C164.9,194.6 167.2,204.8 167.2,204.8 L217.7,204.8 C217.7,204.8 214.7,196 220.5,177.9 C226.2,159.8 234,138.3 239.7,120.5 C245.4,102.7 230.1,95.1 213.6,93.5 C213.6,93.5 248.4,89.8 258,63.8 C267.8,37.7 272.1,26.1 266.4,15.1 Z M214.9,40.7 C213.3,46.9 207.8,63.6 204.1,72.9 C200.9,81 190.3,82.1 184.8,82.1 L202.6,26.3 L207.4,26.3 C219.5,26.3 216.5,34.5 214.9,40.7 Z" id="Shape"></path><path d="M295.8,2.84217094e-14 L347.8,2.84217094e-14 C347.8,2.84217094e-14 294.4,158.6 292.5,163.9 C290.6,169.2 291.5,174.1 298.4,174.1 C305.3,174.1 307,170.4 309.8,164.5 C312.6,158.6 364.1,0.1 364.1,0.1 L415.6,0.1 C415.6,0.1 375.6,123.6 366.5,151.4 C357.4,179.2 342.3,204.9 287.1,204.9 C245.6,204.9 234.1,188.7 243.3,159.4 C252.4,129.9 295.8,2.84217094e-14 295.8,2.84217094e-14 Z" id="Path"></path><path d="M469.8,72.7 L513.5,72.7 L535.3,9.9 C535.3,9.9 509.9,0.5 484.6,0.5 C459.3,0.5 428.3,8.3 419.6,34.1 C410.9,59.9 409.7,66.8 407.5,74.8 C405.3,82.8 409.6,89.5 417.6,99.5 C425.6,109.5 439.2,125.8 442.8,130.6 C446.4,135.4 447.5,139.6 446.3,143.1 C445.1,146.6 441.4,160.5 438.4,167 C435.4,173.5 430.4,175.1 426.4,174.8 C422.5,174.4 420,171.7 422,166.4 C424,161.1 435.5,126.4 435.5,126.4 L389,126.4 L365.2,196.6 C365.2,196.6 394.4,204.9 419,204.9 C443.6,204.9 474.4,201.6 484.5,167.7 C494.6,133.8 496.2,123.4 495.6,118 C495,112.6 492.9,106.8 478.6,95.4 C464.3,84 453.6,76.3 458.3,60.6 C463.1,44.9 465.8,39.5 468.1,34.3 C471.2,27.3 475.8,28.3 479.9,29.1 C484,29.9 483.7,34.9 482.2,38.6 C480.7,42.2 469.8,72.7 469.8,72.7 Z" id="Path"></path></g><rect id="Rectangle" fill="#063B62" x="313" y="339" width="1113" height="20.9"></rect></g></g></svg>